<svg width="236" height="128" viewBox="0 0 236 128" fill="none" xmlns="http://www.w3.org/2000/svg">
<g clip-path="url(#clip0_1518_7544)">
<path d="M171.87 0H63.64C28.4926 0 0 28.4926 0 63.64C0 98.7874 28.4926 127.28 63.64 127.28H171.87C207.017 127.28 235.51 98.7874 235.51 63.64C235.51 28.4926 207.017 0 171.87 0Z" fill="#303030"/>
<path d="M36.92 32.7202H105.48V67.2002C105.48 76.0402 100.76 84.2102 93.11 88.6302L71.2 101.28L49.29 88.6302C41.63 84.2102 36.92 76.0402 36.92 67.2002V32.7202Z" fill="#FFDD2D"/>
<path fill-rule="evenodd" clip-rule="evenodd" d="M55.73 50.8701V61.5901C57.2 59.9301 59.86 58.8101 62.91 58.8101H66.22V71.2801C66.22 74.6001 65.32 77.5001 63.98 79.1001H78.39C77.06 77.5001 76.16 74.6001 76.16 71.2901V58.8201H79.47C82.52 58.8201 85.19 59.9401 86.65 61.6001V50.8801H55.72L55.73 50.8701Z" fill="#333333"/>
<path d="M144.62 85.2602V44.7402H131.84V85.2602H144.62Z" fill="white"/>
<path d="M175.42 85.2602C191.59 85.2602 199.59 76.6602 199.59 65.0002C199.59 53.3402 191.58 44.7402 176.78 44.7402H153.97V85.2602H175.43H175.42ZM174.13 54.4402C182.9 54.4402 186.56 58.3602 186.56 65.0002C186.56 71.1302 182.91 75.8102 174.13 75.8102H166.3V54.4402H174.13Z" fill="white"/>
</g>
<defs>
<clipPath id="clip0_1518_7544">
<rect width="235.51" height="127.28" fill="white"/>
</clipPath>
</defs>
</svg>
